<svg width="56" height="55" viewBox="0 0 56 55" fill="none" xmlns="http://www.w3.org/2000/svg">
<ellipse cx="28.0089" cy="27.5" rx="27.2155" ry="27.5" fill="#302CD7"/>
<path d="M31.8234 29.375C30.6906 29.375 30.1827 30 28.3468 30C26.4718 30 25.964 29.375 24.8312 29.375C21.9406 29.375 19.5968 31.7578 19.5968 34.6484V35.625C19.5968 36.6797 20.4171 37.5 21.4718 37.5H35.2218C36.2374 37.5 37.0968 36.6797 37.0968 35.625V34.6484C37.0968 31.7578 34.714 29.375 31.8234 29.375ZM35.2218 35.625H21.4718V34.6484C21.4718 32.7734 22.9562 31.25 24.8312 31.25C25.4171 31.25 26.3156 31.875 28.3468 31.875C30.339 31.875 31.2374 31.25 31.8234 31.25C33.6984 31.25 35.2218 32.7734 35.2218 34.6484V35.625ZM28.3468 28.75C31.4327 28.75 33.9718 26.25 33.9718 23.125C33.9718 20.0391 31.4327 17.5 28.3468 17.5C25.2218 17.5 22.7218 20.0391 22.7218 23.125C22.7218 26.25 25.2218 28.75 28.3468 28.75ZM28.3468 19.375C30.3781 19.375 32.0968 21.0938 32.0968 23.125C32.0968 25.1953 30.3781 26.875 28.3468 26.875C26.2765 26.875 24.5968 25.1953 24.5968 23.125C24.5968 21.0938 26.2765 19.375 28.3468 19.375Z" fill="white"/>
</svg>
