<svg width="30" height="30" viewBox="0 0 30 30" fill="none" xmlns="http://www.w3.org/2000/svg">
<circle cx="15" cy="15" r="15" fill="#6F4FF2"/>
<path d="M20.3125 13.875H19.6562V11.9062C19.6562 9.63672 17.7695 7.75 15.5 7.75C13.2031 7.75 11.3438 9.63672 11.3438 11.9062V13.875H10.6875C9.94922 13.875 9.375 14.4766 9.375 15.1875V20.4375C9.375 21.1758 9.94922 21.75 10.6875 21.75H20.3125C21.0234 21.75 21.625 21.1758 21.625 20.4375V15.1875C21.625 14.4766 21.0234 13.875 20.3125 13.875ZM17.4688 13.875H13.5312V11.9062C13.5312 10.8398 14.4062 9.9375 15.5 9.9375C16.5664 9.9375 17.4688 10.8398 17.4688 11.9062V13.875Z" fill="white"/>
</svg>
