<svg width="19" height="18" viewBox="0 0 19 18" fill="none" xmlns="http://www.w3.org/2000/svg">
<path d="M10.9844 0.5625C10.4648 0.5625 10.0938 0.970703 10.0938 1.45312V7.39062C10.0938 7.91016 10.4648 8.28125 10.9844 8.28125H18.1094C18.5918 8.28125 19 7.91016 19 7.39062V1.45312C19 0.970703 18.5918 0.5625 18.1094 0.5625H10.9844ZM8.01562 0.5625H0.890625C0.371094 0.5625 0 0.970703 0 1.45312V7.39062C0 7.91016 0.371094 8.28125 0.890625 8.28125H8.01562C8.49805 8.28125 8.90625 7.91016 8.90625 7.39062V1.45312C8.90625 0.970703 8.49805 0.5625 8.01562 0.5625ZM0 10.3594V16.2969C0 16.8164 0.371094 17.1875 0.890625 17.1875H8.01562C8.49805 17.1875 8.90625 16.8164 8.90625 16.2969V10.3594C8.90625 9.87695 8.49805 9.46875 8.01562 9.46875H0.890625C0.371094 9.46875 0 9.87695 0 10.3594ZM10.9844 17.1875H18.1094C18.5918 17.1875 19 16.8164 19 16.2969V10.3594C19 9.87695 18.5918 9.46875 18.1094 9.46875H10.9844C10.4648 9.46875 10.0938 9.87695 10.0938 10.3594V16.2969C10.0938 16.8164 10.4648 17.1875 10.9844 17.1875Z" fill="#65646A"/>
</svg>
